<svg width="32" height="32" viewBox="0 0 32 32" fill="none" xmlns="http://www.w3.org/2000/svg">
<path d="M22.6667 13.3333H25.3334C28 13.3333 29.3334 12 29.3334 9.33332V6.66666C29.3334 3.99999 28 2.66666 25.3334 2.66666H22.6667C20 2.66666 18.6667 3.99999 18.6667 6.66666V9.33332C18.6667 12 20 13.3333 22.6667 13.3333ZM6.66669 29.3333H9.33335C12 29.3333 13.3334 28 13.3334 25.3333V22.6667C13.3334 20 12 18.6667 9.33335 18.6667H6.66669C4.00002 18.6667 2.66669 20 2.66669 22.6667V25.3333C2.66669 28 4.00002 29.3333 6.66669 29.3333ZM8.00002 13.3333C9.41451 13.3333 10.7711 12.7714 11.7713 11.7712C12.7715 10.771 13.3334 9.41448 13.3334 7.99999C13.3334 6.5855 12.7715 5.22895 11.7713 4.22875C10.7711 3.22856 9.41451 2.66666 8.00002 2.66666C6.58553 2.66666 5.22898 3.22856 4.22878 4.22875C3.22859 5.22895 2.66669 6.5855 2.66669 7.99999C2.66669 9.41448 3.22859 10.771 4.22878 11.7712C5.22898 12.7714 6.58553 13.3333 8.00002 13.3333V13.3333ZM24 29.3333C25.4145 29.3333 26.7711 28.7714 27.7713 27.7712C28.7715 26.771 29.3334 25.4145 29.3334 24C29.3334 22.5855 28.7715 21.2289 27.7713 20.2288C26.7711 19.2286 25.4145 18.6667 24 18.6667C22.5855 18.6667 21.229 19.2286 20.2288 20.2288C19.2286 21.2289 18.6667 22.5855 18.6667 24C18.6667 25.4145 19.2286 26.771 20.2288 27.7712C21.229 28.7714 22.5855 29.3333 24 29.3333Z" stroke="white" stroke-width="2" stroke-miterlimit="10" stroke-linecap="round" stroke-linejoin="round"/>
</svg>
