<svg width="199" height="37" viewBox="0 0 199 37" fill="none" xmlns="http://www.w3.org/2000/svg">
<path d="M86.364 29.576C83.772 29.576 81.468 29.024 79.452 27.92C77.46 26.816 75.9 25.292 74.772 23.348C73.668 21.38 73.116 19.148 73.116 16.652C73.116 14.132 73.668 11.888 74.772 9.92C75.9 7.952 77.46 6.428 79.452 5.348C81.468 4.244 83.772 3.692 86.364 3.692C88.956 3.692 91.248 4.244 93.24 5.348C95.256 6.428 96.816 7.952 97.92 9.92C99.048 11.864 99.612 14.108 99.612 16.652C99.612 19.148 99.048 21.38 97.92 23.348C96.816 25.292 95.256 26.816 93.24 27.92C91.224 29.024 88.932 29.576 86.364 29.576ZM86.364 23.024C87.876 23.024 89.112 22.436 90.072 21.26C91.056 20.084 91.548 18.536 91.548 16.616C91.548 15.344 91.32 14.216 90.864 13.232C90.432 12.224 89.82 11.444 89.028 10.892C88.236 10.316 87.336 10.028 86.328 10.028C85.344 10.028 84.456 10.316 83.664 10.892C82.872 11.444 82.26 12.224 81.828 13.232C81.396 14.216 81.18 15.344 81.18 16.616C81.18 18.536 81.66 20.084 82.62 21.26C83.58 22.436 84.828 23.024 86.364 23.024ZM114.727 29.576C112.327 29.576 110.143 29.012 108.175 27.884C106.231 26.732 104.683 25.172 103.531 23.204C102.403 21.212 101.839 19.016 101.839 16.616C101.839 14.168 102.391 11.96 103.495 9.992C104.599 8.024 106.111 6.488 108.031 5.384C109.951 4.256 112.111 3.692 114.511 3.692C115.807 3.692 117.079 3.848 118.327 4.16C119.575 4.472 120.643 4.916 121.531 5.492L120.559 11.072C118.831 10.424 117.271 10.1 115.879 10.1C113.959 10.1 112.483 10.664 111.451 11.792C110.419 12.896 109.903 14.492 109.903 16.58C109.903 18.62 110.443 20.216 111.523 21.368C112.627 22.496 114.151 23.06 116.095 23.06C116.839 23.06 117.535 22.988 118.183 22.844C118.831 22.7 119.623 22.436 120.559 22.052L121.567 27.74C119.479 28.964 117.199 29.576 114.727 29.576ZM130.585 29.288C128.545 29.288 126.961 28.652 125.833 27.38C124.729 26.084 124.177 24.32 124.177 22.088V5.276L131.773 4.16V21.548C131.773 22.22 131.929 22.712 132.241 23.024C132.577 23.312 133.153 23.456 133.969 23.456C134.569 23.456 135.157 23.312 135.733 23.024L135.985 28.064C134.377 28.88 132.577 29.288 130.585 29.288ZM147.323 29.288C145.307 29.288 143.507 28.892 141.923 28.1C140.363 27.308 139.139 26.216 138.251 24.824C137.387 23.408 136.955 21.788 136.955 19.964C136.955 18.14 137.399 16.532 138.287 15.14C139.175 13.724 140.399 12.632 141.959 11.864C143.543 11.096 145.343 10.712 147.359 10.712C149.399 10.712 151.199 11.108 152.759 11.9C154.343 12.668 155.567 13.748 156.431 15.14C157.295 16.532 157.727 18.14 157.727 19.964C157.727 21.812 157.283 23.444 156.395 24.86C155.531 26.252 154.307 27.344 152.723 28.136C151.163 28.904 149.363 29.288 147.323 29.288ZM147.395 23.888C148.379 23.888 149.183 23.528 149.807 22.808C150.455 22.064 150.779 21.116 150.779 19.964C150.779 18.812 150.455 17.876 149.807 17.156C149.183 16.412 148.379 16.04 147.395 16.04C146.411 16.04 145.595 16.412 144.947 17.156C144.323 17.876 144.011 18.812 144.011 19.964C144.011 21.116 144.323 22.064 144.947 22.808C145.595 23.528 146.411 23.888 147.395 23.888ZM169.317 29.288C167.397 29.288 165.693 28.904 164.205 28.136C162.741 27.344 161.589 26.24 160.749 24.824C159.933 23.408 159.525 21.8 159.525 20C159.525 18.272 159.957 16.7 160.821 15.284C161.685 13.868 162.861 12.752 164.349 11.936C165.837 11.12 167.493 10.712 169.317 10.712C171.645 10.712 173.481 11.192 174.825 12.152L174.141 16.94C172.773 16.532 171.645 16.328 170.757 16.328C169.605 16.328 168.693 16.664 168.021 17.336C167.349 17.984 167.013 18.872 167.013 20C167.013 21.128 167.349 22.028 168.021 22.7C168.693 23.372 169.581 23.708 170.685 23.708C171.645 23.708 172.773 23.504 174.069 23.096L174.753 28.136C173.937 28.544 173.109 28.832 172.269 29C171.429 29.192 170.445 29.288 169.317 29.288ZM195.153 29.288C193.545 29.288 192.249 29.084 191.265 28.676C190.305 28.244 189.513 27.536 188.889 26.552C188.265 25.568 187.713 24.164 187.233 22.34L185.109 24.032V29H177.477L177.513 5.276L185.145 4.16L185.109 16.472L194.361 8.912L198.501 14.564L192.705 18.596C192.993 20.42 193.401 21.692 193.929 22.412C194.481 23.132 195.285 23.492 196.341 23.492C196.773 23.492 197.289 23.42 197.889 23.276L197.169 29.18C196.449 29.252 195.777 29.288 195.153 29.288Z" fill="#ffffff"/>
<path fill-rule="evenodd" clip-rule="evenodd" d="M10.44 31.7843V36.36H35C37.2091 36.36 39 34.5691 39 32.36V23.4H23.6838C21.6357 28.3318 16.7729 31.8 11.1 31.8C10.8787 31.8 10.6587 31.7947 10.44 31.7843Z" fill="#ffffff" fill-opacity="0.85"/>
<path fill-rule="evenodd" clip-rule="evenodd" d="M50 0H10.44V4.57572C10.6587 4.56528 10.8787 4.56001 11.1 4.56001C18.6221 4.56001 24.72 10.6579 24.72 18.18C24.72 18.8942 24.665 19.5955 24.5591 20.28H54V4C54 1.79086 52.2091 0 50 0Z" fill="#ffffff"/>
<path d="M11 11.56L12.0392 18.16H9.96076L11 11.56Z" fill="#ffffff"/>
<path d="M18.9936 23.3376L10.8288 19.7684L11.8777 17.9741L18.9936 23.3376Z" fill="#ffffff"/>
<rect x="9.79999" y="17.36" width="2.4" height="2.4" rx="1.2" fill="#ffffff"/>
</svg>
