<svg width="191" height="31" viewBox="0 0 191 31" fill="none" xmlns="http://www.w3.org/2000/svg">
<path fill-rule="evenodd" clip-rule="evenodd" d="M8.89331 27.0755V30.9734H29.2222C31.4314 30.9734 33.2222 29.1825 33.2222 26.9734V19.9333H20.1751C18.4304 24.1345 14.288 27.0889 9.45554 27.0889C9.26705 27.0889 9.0796 27.0844 8.89331 27.0755Z" fill="#534F3E"/>
<path fill-rule="evenodd" clip-rule="evenodd" d="M42 0H8.89331V3.89785C9.0796 3.88896 9.26705 3.88447 9.45554 3.88447C15.8633 3.88447 21.0578 9.07897 21.0578 15.4867C21.0578 16.0951 21.011 16.6925 20.9207 17.2756H46V4C46 1.79086 44.2092 0 42 0Z" fill="#36342B"/>
<path d="M9.37049 9.84744L10.2558 15.4697H8.48522L9.37049 9.84744Z" fill="#36342B"/>
<path d="M16.1797 19.8802L9.22446 16.8398L10.118 15.3113L16.1797 19.8802Z" fill="#36342B"/>
<rect x="8.34827" y="14.7882" width="2.04445" height="2.04445" rx="1.02222" fill="#36342B"/>
<path d="M78.364 29.576C75.772 29.576 73.468 29.024 71.452 27.92C69.46 26.816 67.9 25.292 66.772 23.348C65.668 21.38 65.116 19.148 65.116 16.652C65.116 14.132 65.668 11.888 66.772 9.92C67.9 7.952 69.46 6.428 71.452 5.348C73.468 4.244 75.772 3.692 78.364 3.692C80.956 3.692 83.248 4.244 85.24 5.348C87.256 6.428 88.816 7.952 89.92 9.92C91.048 11.864 91.612 14.108 91.612 16.652C91.612 19.148 91.048 21.38 89.92 23.348C88.816 25.292 87.256 26.816 85.24 27.92C83.224 29.024 80.932 29.576 78.364 29.576ZM78.364 23.024C79.876 23.024 81.112 22.436 82.072 21.26C83.056 20.084 83.548 18.536 83.548 16.616C83.548 15.344 83.32 14.216 82.864 13.232C82.432 12.224 81.82 11.444 81.028 10.892C80.236 10.316 79.336 10.028 78.328 10.028C77.344 10.028 76.456 10.316 75.664 10.892C74.872 11.444 74.26 12.224 73.828 13.232C73.396 14.216 73.18 15.344 73.18 16.616C73.18 18.536 73.66 20.084 74.62 21.26C75.58 22.436 76.828 23.024 78.364 23.024ZM106.727 29.576C104.327 29.576 102.143 29.012 100.175 27.884C98.2307 26.732 96.6827 25.172 95.5307 23.204C94.4027 21.212 93.8387 19.016 93.8387 16.616C93.8387 14.168 94.3907 11.96 95.4947 9.992C96.5987 8.024 98.1107 6.488 100.031 5.384C101.951 4.256 104.111 3.692 106.511 3.692C107.807 3.692 109.079 3.848 110.327 4.16C111.575 4.472 112.643 4.916 113.531 5.492L112.559 11.072C110.831 10.424 109.271 10.1 107.879 10.1C105.959 10.1 104.483 10.664 103.451 11.792C102.419 12.896 101.903 14.492 101.903 16.58C101.903 18.62 102.443 20.216 103.523 21.368C104.627 22.496 106.151 23.06 108.095 23.06C108.839 23.06 109.535 22.988 110.183 22.844C110.831 22.7 111.623 22.436 112.559 22.052L113.567 27.74C111.479 28.964 109.199 29.576 106.727 29.576ZM122.585 29.288C120.545 29.288 118.961 28.652 117.833 27.38C116.729 26.084 116.177 24.32 116.177 22.088V5.276L123.773 4.16V21.548C123.773 22.22 123.929 22.712 124.241 23.024C124.577 23.312 125.153 23.456 125.969 23.456C126.569 23.456 127.157 23.312 127.733 23.024L127.985 28.064C126.377 28.88 124.577 29.288 122.585 29.288ZM139.323 29.288C137.307 29.288 135.507 28.892 133.923 28.1C132.363 27.308 131.139 26.216 130.251 24.824C129.387 23.408 128.955 21.788 128.955 19.964C128.955 18.14 129.399 16.532 130.287 15.14C131.175 13.724 132.399 12.632 133.959 11.864C135.543 11.096 137.343 10.712 139.359 10.712C141.399 10.712 143.199 11.108 144.759 11.9C146.343 12.668 147.567 13.748 148.431 15.14C149.295 16.532 149.727 18.14 149.727 19.964C149.727 21.812 149.283 23.444 148.395 24.86C147.531 26.252 146.307 27.344 144.723 28.136C143.163 28.904 141.363 29.288 139.323 29.288ZM139.395 23.888C140.379 23.888 141.183 23.528 141.807 22.808C142.455 22.064 142.779 21.116 142.779 19.964C142.779 18.812 142.455 17.876 141.807 17.156C141.183 16.412 140.379 16.04 139.395 16.04C138.411 16.04 137.595 16.412 136.947 17.156C136.323 17.876 136.011 18.812 136.011 19.964C136.011 21.116 136.323 22.064 136.947 22.808C137.595 23.528 138.411 23.888 139.395 23.888ZM161.317 29.288C159.397 29.288 157.693 28.904 156.205 28.136C154.741 27.344 153.589 26.24 152.749 24.824C151.933 23.408 151.525 21.8 151.525 20C151.525 18.272 151.957 16.7 152.821 15.284C153.685 13.868 154.861 12.752 156.349 11.936C157.837 11.12 159.493 10.712 161.317 10.712C163.645 10.712 165.481 11.192 166.825 12.152L166.141 16.94C164.773 16.532 163.645 16.328 162.757 16.328C161.605 16.328 160.693 16.664 160.021 17.336C159.349 17.984 159.013 18.872 159.013 20C159.013 21.128 159.349 22.028 160.021 22.7C160.693 23.372 161.581 23.708 162.685 23.708C163.645 23.708 164.773 23.504 166.069 23.096L166.753 28.136C165.937 28.544 165.109 28.832 164.269 29C163.429 29.192 162.445 29.288 161.317 29.288ZM187.153 29.288C185.545 29.288 184.249 29.084 183.265 28.676C182.305 28.244 181.513 27.536 180.889 26.552C180.265 25.568 179.713 24.164 179.233 22.34L177.109 24.032V29H169.477L169.513 5.276L177.145 4.16L177.109 16.472L186.361 8.912L190.501 14.564L184.705 18.596C184.993 20.42 185.401 21.692 185.929 22.412C186.481 23.132 187.285 23.492 188.341 23.492C188.773 23.492 189.289 23.42 189.889 23.276L189.169 29.18C188.449 29.252 187.777 29.288 187.153 29.288Z" fill="#36342B"/>
</svg>
