<svg width="38" height="31" viewBox="0 0 38 31" fill="none" xmlns="http://www.w3.org/2000/svg">
<path fill-rule="evenodd" clip-rule="evenodd" d="M0.893311 27.0755V30.9734H21.2222C23.4314 30.9734 25.2222 29.1825 25.2222 26.9734V19.9333H12.1751C10.4304 24.1345 6.28801 27.0889 1.45554 27.0889C1.26705 27.0889 1.0796 27.0844 0.893311 27.0755Z" fill="#103047" fill-opacity="0.85"/>
<path fill-rule="evenodd" clip-rule="evenodd" d="M34 0H0.893311V3.89785C1.0796 3.88896 1.26705 3.88447 1.45554 3.88447C7.86328 3.88447 13.0578 9.07897 13.0578 15.4867C13.0578 16.0951 13.011 16.6925 12.9207 17.2756H38V4C38 1.79086 36.2092 0 34 0Z" fill="#103047"/>
<path d="M1.37049 9.84744L2.25576 15.4697H0.485219L1.37049 9.84744Z" fill="#103047"/>
<path d="M8.17968 19.8802L1.22446 16.8398L2.118 15.3113L8.17968 19.8802Z" fill="#103047"/>
<rect x="0.348267" y="14.7882" width="2.04445" height="2.04445" rx="1.02222" fill="#103047"/>
</svg>
